<?xml version="1.0" encoding="UTF-8"?>
<!DOCTYPE svg PUBLIC "-//W3C//DTD SVG 1.1//EN" "http://www.w3.org/Graphics/SVG/1.1/DTD/svg11.dtd">
<!-- Creator: CorelDRAW X7 -->
<svg xmlns="http://www.w3.org/2000/svg" xml:space="preserve" width="30mm" height="60mm" version="1.1" style="shape-rendering:geometricPrecision; text-rendering:geometricPrecision; image-rendering:optimizeQuality; fill-rule:evenodd; clip-rule:evenodd"
viewBox="0 0 3000 6000"
 xmlns:xlink="http://www.w3.org/1999/xlink">
 <defs>
  <style type="text/css">
   <![CDATA[
    .fil0 {fill:#009846}
   ]]>
  </style>
 </defs>
 <g id="Слой_x0020_1">
  <metadata id="CorelCorpID_0Corel-Layer"/>
  <path class="fil0" d="M-7708 56c-54,-151 -84,-314 -84,-484 0,-785 637,-1422 1423,-1422 785,0 1422,637 1422,1422 0,169 -29,331 -83,481l-1339 3732 -1339 -3729zm1339 240c-400,0 -724,-324 -724,-724 0,-399 324,-723 724,-723 399,0 723,324 723,723 0,400 -324,724 -723,724z"/>
  <path class="fil0" d="M159 2136c-54,-151 -84,-314 -84,-483 0,-786 637,-1423 1423,-1423 786,0 1422,637 1422,1423 0,168 -29,330 -83,480 -1183,1677 -1009,1705 -1339,3732 -327,-2034 -147,-2051 -1339,-3729zm1339 240c-400,0 -724,-324 -724,-723 0,-400 324,-724 724,-724 400,0 724,324 724,724 0,399 -324,723 -724,723z"/>
 </g>
</svg>
