<?xml version="1.0" encoding="utf-8"?>
<!-- Generator: Adobe Illustrator 19.2.1, SVG Export Plug-In . SVG Version: 6.00 Build 0)  -->
<svg version="1.1" id="Слой_1" xmlns="http://www.w3.org/2000/svg" xmlns:xlink="http://www.w3.org/1999/xlink" x="0px" y="0px"
	 viewBox="0 0 145.9 122.6" style="enable-background:new 0 0 145.9 122.6;" xml:space="preserve">
<style type="text/css">
	.st0{fill:#E31E24;}
</style>
<path class="st0" d="M105.5,122.5l-10.1,0c-1.7-8.5-6.4-29.2-11.7-35.2c0.6,8.3,5.2,25.3,5.3,35.1l-65.8,0.1
	c-0.6-9.9-0.1-21.6-0.1-31.6V43c0.1-4.9-1.3-5-5.8-10.2C13.7,28.5,9.2,25,4.8,21.6c-1.6-1.2-3.5-2.3-4.8-3.7
	c17.7,1.4,41.5,13.2,55.6,23c2.7,1.9,4.6,3.3,7.4,5.6c17.2,13.9,29.3,33.2,37.2,54.8C101.6,105.2,105.6,118.6,105.5,122.5z"/>
<path class="st0" d="M145.8,52.2c-1.7-0.7-2.8-1.8-4.3-2.8c-1.5-1.1-2.7-1.9-4.2-2.9c-6.9-4.7-19.7-12.2-27.5-14.3l1.3,1.2
	c5.1,3.7,10.9,7.2,15.9,11.8c9.2,8.4,9.5,9,17.3,18c1.2,1.4,1.4,1.3,1.4,3.6c0,2.9,0.2,7.4-0.1,10.1L129.1,59
	c-9.1-8.8-22.5-19.4-33.4-25.7C75.9,22.2,50.5,12.5,23.5,11.5C22.8,9.2,23.2,2.7,23.2,0h122.5L145.8,52.2z"/>
<path class="st0" d="M145.8,114.7v7.8l-12.8,0.1c-2-7.7-3.9-13.7-6.7-20.7c-1.2-2.9-3-6.8-4.5-9.4c-1.2-2.3-4.1-7.1-4.8-8.9
	l11.1-0.1c3.3,0,2.6,0.5,5.8,5.6c1,1.5,1.9,3,2.8,4.7C138.8,97.5,145.8,110.3,145.8,114.7z"/>
<path class="st0" d="M126.2,77.9c-16.6,0-11.2,1.6-16.6-5.3c-2.4-3-5.8-7.7-8.4-10.2c-1.3-1.3-3.7-3.9-4.6-5.4
	c2.8,0,10.2-0.8,12.2,0.6C111.5,59.6,124.4,74.4,126.2,77.9z"/>
<path class="st0" d="M102.1,51.8H92c-2,0-1.7-0.3-2.8-1.3c-5.6-5-13.3-9.9-15.8-12.2c10.6-0.7,10.3-0.7,17,4c2,1.4,4,2.9,5.9,4.4
	c0.9,0.7,1.9,1.6,2.9,2.3L102.1,51.8z"/>
<path class="st0" d="M76.6,33.9c-9.7,0.8-9.7,0.4-16.3-3.2c-2.1-1.1-4.2-2.2-6.3-3.2c-2-0.9-5.2-1.9-6.8-3.3c8.4-0.7,9.9,0.2,16.5,3
	C66.6,28.5,75,32.2,76.6,33.9z"/>
<path class="st0" d="M45.7,20.7c-7.1,0.8-9.5-0.5-15.5-2.4c-4.1-1.3-10-3.1-14.2-3.8C21,14.5,42.4,18.7,45.7,20.7z"/>
</svg>
