<?xml version="1.0" encoding="UTF-8"?>
<!DOCTYPE svg PUBLIC "-//W3C//DTD SVG 1.1//EN" "http://www.w3.org/Graphics/SVG/1.1/DTD/svg11.dtd">
<!-- Creator: CorelDRAW X7 -->
<svg xmlns="http://www.w3.org/2000/svg" xml:space="preserve" width="280mm" height="70mm" version="1.1" style="shape-rendering:geometricPrecision; text-rendering:geometricPrecision; image-rendering:optimizeQuality; fill-rule:evenodd; clip-rule:evenodd"
viewBox="0 0 28000 7000"
 xmlns:xlink="http://www.w3.org/1999/xlink">
 <defs>
  <style type="text/css">
   <![CDATA[
    .fil2 {fill:#E31E24}
    .fil0 {fill:#2B2A29;fill-rule:nonzero}
    .fil1 {fill:#56698F;fill-rule:nonzero}
   ]]>
  </style>
 </defs>
 <g id="Слой_x0020_1">
  <metadata id="CorelCorpID_0Corel-Layer"/>
  <g id="_2861474999648">
   <path class="fil0" d="M7182 3560l0 -1391 420 612 323 0 407 -612 0 1391 583 0 0 -2280 -580 0 -580 876 -576 -876 -583 0 0 2280 586 0zm3928 0l0 -515 -1173 0 0 -446 912 0 0 -495 -912 0 0 -309 1147 0 0 -515 -1733 0 0 2280 1759 0zm1133 45c303,0 544,-68 723,-208 179,-140 270,-316 270,-521 0,-241 -114,-417 -345,-528 147,-75 277,-228 277,-436 0,-199 -82,-358 -248,-485 -162,-127 -384,-192 -664,-192 -270,0 -534,68 -785,205l0 505c231,-121 482,-183 756,-183 231,0 358,72 358,186 0,127 -98,189 -293,189l-358 0 0 465 289 0c271,0 408,69 408,206 0,166 -173,263 -469,263 -261,0 -567,-94 -772,-250l0 560c218,150 505,224 853,224zm3084 -45l0 -515 -1172 0 0 -446 912 0 0 -495 -912 0 0 -309 1146 0 0 -515 -1733 0 0 2280 1759 0zm919 0l0 -948 859 0 0 948 587 0 0 -2280 -587 0 0 811 -859 0 0 -811 -587 0 0 2280 587 0zm3080 45c232,0 440,-48 626,-143l0 -580c-160,121 -359,183 -600,183 -198,0 -364,-59 -498,-179 -130,-121 -195,-277 -195,-466 0,-186 65,-342 192,-462 127,-121 287,-183 479,-183 211,0 404,56 583,166l0 -576c-179,-88 -375,-130 -590,-130 -365,0 -667,110 -908,332 -238,221 -359,505 -359,853 0,348 121,632 362,853 241,222 544,332 908,332zm1577 -45l0 -1013 892 1013 713 0 -1045 -1231 882 -1049 -703 0 -739 870 0 -870 -587 0 0 2280 587 0zm2247 -678c-114,-120 -170,-276 -170,-462 0,-186 56,-342 170,-462 114,-121 257,-183 430,-183 172,0 312,62 426,183 114,120 173,276 173,462 0,186 -59,342 -173,462 -114,121 -254,183 -426,183 -173,0 -316,-62 -430,-183zm1289 378c228,-231 342,-511 342,-840 0,-329 -114,-609 -342,-840 -227,-231 -514,-345 -859,-345 -345,0 -632,114 -860,345 -228,231 -342,511 -342,840 0,329 114,609 342,840 228,231 515,345 860,345 345,0 632,-114 859,-345zm2466 300l0 -515 -1173 0 0 -446 912 0 0 -495 -912 0 0 -309 1147 0 0 -515 -1733 0 0 2280 1759 0z"/>
   <path class="fil1" d="M6648 5703l0 -227 802 0 0 227 157 0 0 -380 -153 0 0 -905 -700 0 0 146c0,195 -13,351 -39,464 -26,114 -67,212 -123,295l-101 0 0 380 157 0zm126 -380c53,-86 89,-189 110,-308 21,-120 32,-268 32,-445l372 0 0 753 -514 0zm1250 -95c-71,-76 -106,-169 -106,-281 0,-112 35,-206 106,-280 71,-76 159,-113 263,-113 105,0 192,37 263,113 71,74 108,168 108,280 0,112 -37,205 -108,281 -71,74 -158,112 -263,112 -104,0 -192,-38 -263,-112zm650 110c103,-105 155,-236 155,-391 0,-156 -52,-286 -155,-390 -102,-106 -231,-159 -387,-159 -155,0 -284,53 -387,159 -101,104 -152,234 -152,390 0,155 51,286 152,391 103,105 232,158 387,158 156,0 285,-53 387,-158zm546 138l0 -437 289 0c110,0 196,-29 258,-88 64,-59 96,-134 96,-227 0,-90 -32,-164 -96,-220 -62,-58 -148,-86 -258,-86l-455 0 0 1058 166 0zm0 -906l275 0c126,0 200,56 200,158 0,101 -74,158 -200,158l-275 0 0 -316zm1074 658c-71,-76 -106,-169 -106,-281 0,-112 35,-206 106,-280 71,-76 158,-113 263,-113 104,0 192,37 263,113 71,74 107,168 107,280 0,112 -36,205 -107,281 -71,74 -159,112 -263,112 -105,0 -192,-38 -263,-112zm650 110c103,-105 154,-236 154,-391 0,-156 -51,-286 -154,-390 -103,-106 -232,-159 -387,-159 -156,0 -285,53 -387,159 -102,104 -153,234 -153,390 0,155 51,286 153,391 102,105 231,158 387,158 155,0 284,-53 387,-158zm408 138l447 -487 0 487 167 0 0 -485 450 485 218 0 -506 -553 444 -505 -209 0 -397 452 0 -452 -167 0 0 452 -396 -452 -205 0 440 505 -504 553 218 0zm1595 0l0 -488 552 0 0 488 166 0 0 -1058 -166 0 0 417 -552 0 0 -417 -166 0 0 1058 166 0zm1220 -248c-71,-76 -106,-169 -106,-281 0,-112 35,-206 106,-280 71,-76 159,-113 263,-113 105,0 192,37 263,113 71,74 108,168 108,280 0,112 -37,205 -108,281 -71,74 -158,112 -263,112 -104,0 -192,-38 -263,-112zm650 110c103,-105 154,-236 154,-391 0,-156 -51,-286 -154,-390 -103,-106 -231,-159 -387,-159 -156,0 -284,53 -387,159 -101,104 -153,234 -153,390 0,155 52,286 153,391 103,105 231,158 387,158 156,0 284,-53 387,-158zm1152 138l0 -153 -606 0 0 -335 478 0 0 -153 -478 0 0 -265 587 0 0 -152 -753 0 0 1058 772 0zm734 20c125,0 226,-82 304,-247l390 -831 -179 0 -260 573 -313 -573 -187 0 414 749c-33,70 -64,117 -92,140 -29,22 -64,33 -106,33 -44,0 -83,-9 -121,-26l0 157c35,17 85,25 150,25zm1019 -20l0 -906 527 0 0 906 167 0 0 -1058 -861 0 0 1058 167 0zm1123 0l0 -437 289 0c110,0 196,-29 258,-88 64,-59 96,-134 96,-227 0,-90 -32,-164 -96,-220 -62,-58 -148,-86 -258,-86l-455 0 0 1058 166 0zm0 -906l275 0c126,0 200,56 200,158 0,101 -74,158 -200,158l-275 0 0 -316zm798 906l114 -263 502 0 115 263 178 0 -463 -1064 -160 0 -463 1064 177 0zm365 -854l193 444 -387 0 194 -444zm1229 854c110,0 196,-27 260,-82 65,-54 97,-127 97,-216 0,-156 -97,-258 -226,-283 81,-30 141,-109 141,-217 0,-164 -122,-260 -311,-260l-481 0 0 1058 520 0zm-354 -485l324 0c131,0 207,59 207,163 0,107 -79,169 -207,169l-324 0 0 -332zm0 -421l286 0c110,0 175,47 175,136 0,90 -65,138 -175,138l-286 0 0 -274zm807 903c16,4 37,7 65,7 132,0 218,-52 268,-173 50,-123 70,-273 74,-510l5 -227 378 0 0 906 166 0 0 -1058 -705 0 -4 362c-5,194 -14,312 -42,409 -26,96 -75,139 -149,139 -22,0 -40,-2 -56,-6l0 151zm1992 3l0 -153 -607 0 0 -335 478 0 0 -153 -478 0 0 -265 587 0 0 -152 -753 0 0 1058 773 0zm363 0l0 -488 551 0 0 488 167 0 0 -1058 -167 0 0 417 -551 0 0 -417 -167 0 0 1058 167 0zm1123 0l585 -780 0 780 166 0 0 -1058 -145 0 -582 777 0 -777 -166 0 0 1058 142 0zm1787 0l0 -153 -606 0 0 -335 477 0 0 -153 -477 0 0 -265 586 0 0 -152 -753 0 0 1058 773 0z"/>
   <path class="fil2" d="M4301 5563l-356 1c-60,-300 -227,-1029 -411,-1241 20,292 182,893 188,1237l-2323 4c-21,-351 -2,-762 -2,-1116l0 -1692c2,-174 -46,-177 -203,-361 -129,-151 -289,-274 -446,-393 -56,-42 -123,-80 -168,-130 626,48 1465,466 1960,813 97,68 161,118 262,199 606,489 1033,1170 1312,1932 50,135 193,607 187,747z"/>
   <path class="fil2" d="M5722 3082c-59,-23 -100,-62 -151,-100 -52,-38 -94,-66 -148,-103 -243,-167 -694,-432 -969,-506l47 44c181,132 384,254 562,416 323,295 334,319 611,635 41,48 50,45 51,126 0,101 7,261 -5,356l-586 -628c-322,-310 -792,-686 -1179,-905 -698,-395 -1595,-736 -2547,-772 -23,-81 -11,-309 -9,-405l4322 0 1 1842z"/>
   <path class="fil2" d="M5723 5287l0 274 -451 2c-69,-273 -136,-485 -236,-731 -42,-103 -107,-239 -158,-331 -44,-80 -146,-250 -169,-314l391 -2c116,0 90,19 204,198 35,53 67,106 100,166 72,131 319,582 319,738z"/>
   <path class="fil2" d="M5031 3987c-584,0 -395,55 -587,-186 -83,-105 -205,-270 -296,-360 -46,-46 -132,-139 -164,-189 98,1 360,-27 429,20 101,69 555,594 618,715z"/>
   <path class="fil2" d="M4181 3069l-355 0c-69,0 -59,-11 -99,-47 -196,-177 -469,-349 -558,-431 375,-24 363,-25 598,140 69,49 142,103 207,156 33,26 67,55 101,81l106 101z"/>
   <path class="fil2" d="M3281 2436c-343,27 -343,15 -575,-113 -73,-40 -147,-77 -223,-112 -72,-33 -185,-67 -239,-116 296,-25 350,7 583,107 101,42 399,175 454,234z"/>
   <path class="fil2" d="M2191 1972c-251,27 -336,-18 -546,-84 -143,-45 -354,-108 -501,-134 177,-2 933,145 1047,218z"/>
  </g>
 </g>
</svg>
